<?xml version="1.0" encoding="UTF-8" standalone="no"?>
<svg
   xmlns:dc="http://purl.org/dc/elements/1.1/"
   xmlns:cc="http://creativecommons.org/ns#"
   xmlns:rdf="http://www.w3.org/1999/02/22-rdf-syntax-ns#"
   xmlns:svg="http://www.w3.org/2000/svg"
   xmlns="http://www.w3.org/2000/svg"
   width="210mm"
   height="297mm"
   viewBox="0 0 210 297"
   version="1.1"
   id="svg8">
  <defs
     id="defs2" />
  <metadata
     id="metadata5">
    <rdf:RDF>
      <cc:Work
         rdf:about="">
        <dc:format>image/svg+xml</dc:format>
        <dc:type
           rdf:resource="http://purl.org/dc/dcmitype/StillImage" />
        <dc:title></dc:title>
      </cc:Work>
    </rdf:RDF>
  </metadata>
  <g
     id="layer1">
    <path
       style="fill:#000000;stroke-width:0.127"
       d="m 96.864725,58.303132 c -1.610491,-0.14891 -1.714499,-0.17518 -1.714499,-0.43302 0,-0.2053 0.05426,-0.23601 0.28575,-0.16175 1.222609,0.39219 2.719249,0.41401 3.682349,0.0537 0.77532,-0.29009 1.634735,-1.0941 1.931385,-1.806889 0.59067,-1.419242 -0.14357,-2.917245 -1.963855,-4.00665 -0.24523,-0.146765 -1.2629,-0.614873 -2.26149,-1.040241 -2.021682,-0.861171 -2.657669,-1.218771 -3.356889,-1.887504 l -0.47625,-0.455484 v -1.244225 c 0,-1.455546 0.202706,-1.662686 0.549741,-0.561763 0.386412,1.225839 1.332698,1.911729 4.522898,3.2783 2.965915,1.270499 3.968505,2.181787 4.157675,3.779048 0.096,0.810513 -0.14486,1.765284 -0.63012,2.497908 -0.8442,1.2745 -2.935255,2.15425 -4.726695,1.98861 z m -16.9545,-0.23092 c 0,-0.0383 0.145867,-0.19543 0.324148,-0.34925 0.178283,-0.15381 0.376944,-0.50825 0.441471,-0.78765 0.153082,-0.66285 0.152905,-12.16519 -2.54e-4,-12.827004 -0.07109,-0.307291 -0.258056,-0.62065 -0.473219,-0.793119 l -0.355701,-0.28512 h 1.524 1.524 l -0.3557,0.28512 c -0.510791,0.409435 -0.590342,0.94553 -0.593769,4.001473 l -0.003,2.700354 4.54025,-0.03335 4.540251,-0.03335 -0.005,-2.667 c -0.0057,-3.035118 -0.07157,-3.526065 -0.529858,-3.950796 l -0.327703,-0.303704 h 1.505997 1.505998 l -0.439702,0.366997 -0.439703,0.366997 -0.03809,6.395753 c -0.02095,3.517664 -0.0028,6.588229 0.04031,6.823489 0.04533,0.24729 0.247462,0.58213 0.479149,0.79375 l 0.400737,0.36601 h -1.488804 c -1.346468,0 -1.806628,-0.10486 -1.304944,-0.29737 0.101124,-0.0388 0.282103,-0.25923 0.402177,-0.48984 0.185103,-0.3555 0.227335,-0.92646 0.277601,-3.753035 l 0.05928,-3.333751 h -4.58896 -4.588961 l 0.003,3.079751 c 0.0017,1.693862 0.05582,3.308345 0.120351,3.587745 0.06453,0.2794 0.263188,0.63385 0.441471,0.78766 0.178281,0.15381 0.324148,0.31098 0.324148,0.34925 0,0.0383 -0.657225,0.0696 -1.4605,0.0696 -0.803275,0 -1.4605,-0.0313 -1.4605,-0.0696 z m 13.081001,-2.104953 c 0,-0.225202 0.03134,-0.243539 0.1905,-0.11145 0.104775,0.08695 0.1905,0.208253 0.1905,0.26955 0,0.0613 -0.08572,0.111453 -0.1905,0.111453 -0.109497,0 -0.1905,-0.11462 -0.1905,-0.269553 z M 35.71422,50.902808 v -1.016 h 0.436232 c 0.786841,0 1.087768,0.191133 1.087768,0.690889 0,0.487541 -0.252942,0.706111 -0.817151,0.706111 -0.262905,0 -0.325849,0.06133 -0.325849,0.3175 0,0.197557 -0.07197,0.3175 -0.1905,0.3175 -0.153458,0 -0.1905,-0.197556 -0.1905,-1.016 z m 1.249362,-0.239637 c 0.04778,-0.3379 -0.153283,-0.517496 -0.582612,-0.520418 -0.243237,-0.0017 -0.28575,0.06538 -0.28575,0.450602 0,0.434062 0.01686,0.450921 0.41275,0.41275 0.324216,-0.03126 0.421944,-0.104819 0.455612,-0.342934 z m 1.925638,0.239637 v -1.016 h 0.635001 c 0.34925,0 0.635,0.05715 0.635,0.127 0,0.06985 -0.2286,0.127 -0.508,0.127 -0.4572,0 -0.508,0.03175 -0.508,0.3175 0,0.28575 0.0508,0.3175 0.508,0.3175 0.2794,0 0.508,0.05715 0.508,0.127 0,0.06985 -0.2286,0.127 -0.508,0.127 -0.4572,0 -0.508,0.03175 -0.508,0.3175 0,0.291631 0.04657,0.3175 0.5715,0.3175 0.314325,0 0.5715,0.05715 0.5715,0.127 0,0.06985 -0.314325,0.127 -0.6985,0.127 H 38.88922 Z m 3.048001,0 v -1.016 h 0.479741 c 0.875735,0 1.328175,0.618776 0.843795,1.154011 -0.182849,0.202046 -0.181566,0.250354 0.01461,0.54975 0.179069,0.273293 0.184149,0.328239 0.03035,0.328239 -0.101596,0 -0.249818,-0.142875 -0.329383,-0.3175 -0.09863,-0.216471 -0.246558,-0.3175 -0.464885,-0.3175 -0.256905,0 -0.320223,0.06278 -0.320223,0.3175 0,0.174625 -0.05715,0.3175 -0.127,0.3175 -0.07408,0 -0.127,-0.423332 -0.127,-1.016 z m 1.193692,-0.166188 c 0.111622,-0.18338 0.09011,-0.266595 -0.106716,-0.41275 -0.135587,-0.100684 -0.378475,-0.183062 -0.53975,-0.183062 -0.251442,0 -0.293226,0.06449 -0.293226,0.452547 0,0.431351 0.01873,0.450682 0.399942,0.41275 0.219968,-0.02189 0.462855,-0.143157 0.53975,-0.269485 z m 2.037531,1.002072 c -0.332365,-0.243032 -0.168664,-0.37367 0.236766,-0.188943 0.179198,0.08165 0.415184,0.114156 0.524412,0.07224 0.352898,-0.135419 0.211508,-0.421582 -0.309401,-0.626199 -0.407342,-0.16001 -0.508,-0.263599 -0.508,-0.522797 0,-0.403654 0.392431,-0.63175 0.896449,-0.521049 0.480772,0.105596 0.498458,0.372595 0.01832,0.276568 -0.477593,-0.09552 -0.764723,0.07851 -0.552143,0.334656 0.08568,0.103246 0.294674,0.222577 0.464417,0.265179 0.479682,0.120393 0.632512,0.519906 0.318868,0.833551 -0.300243,0.300243 -0.741568,0.331345 -1.089688,0.07679 z m 3.247887,0.01679 c -0.66834,-0.338156 -0.66039,-1.337767 0.01341,-1.686203 0.742412,-0.383916 1.508482,0.0447 1.508482,0.843991 0,0.801308 -0.765487,1.224928 -1.521891,0.842212 z m 0.985632,-0.288378 c 0.352403,-0.246834 0.365276,-0.735282 0.02826,-1.0723 -0.346491,-0.34649 -0.692617,-0.318771 -1.006783,0.08063 -0.329045,0.418312 -0.33097,0.61362 -0.0092,0.935372 0.305131,0.305132 0.607849,0.322386 0.987741,0.0563 z m 2.187259,-0.5643 c 0,-0.56999 0.05395,-1.016 0.122886,-1.016 0.06759,0 0.367625,0.324766 0.66675,0.721702 l 0.543864,0.721703 0.03809,-0.721703 c 0.05783,-1.095668 0.279413,-0.862275 0.279413,0.294298 0,0.56999 -0.05395,1.016 -0.122886,1.016 -0.06759,0 -0.367625,-0.324765 -0.666751,-0.721701 l -0.543863,-0.721703 -0.03809,0.721703 c -0.05783,1.095668 -0.279413,0.862275 -0.279413,-0.294299 z m 3.175,0.959536 c 0,-0.21269 0.901597,-1.975536 1.010377,-1.975536 0.0747,0 0.283031,0.328613 0.462948,0.73025 0.548978,1.225514 0.571223,1.30175 0.379844,1.30175 -0.0949,0 -0.202434,-0.1143 -0.238967,-0.254 -0.05266,-0.201364 -0.173229,-0.254 -0.581844,-0.254 -0.385443,0 -0.549702,0.06405 -0.651358,0.254 -0.11834,0.22112 -0.381,0.357301 -0.381,0.197536 z m 1.263043,-1.04133 c -0.218818,-0.575536 -0.276702,-0.597633 -0.454962,-0.173679 -0.223996,0.532731 -0.233344,0.509477 0.204776,0.509477 0.356061,0 0.370492,-0.01937 0.250186,-0.335798 z m 2.292958,0.0818 c 0,-0.592667 0.05292,-1.016 0.127,-1.016 0.07257,0 0.127,0.381 0.127,0.889 v 0.889 h 0.4445 c 0.244475,0 0.4445,0.05715 0.4445,0.127 0,0.06985 -0.257175,0.127 -0.5715,0.127 h -0.5715 z m 4.756728,0.704273 c -0.560475,-0.560474 -0.311869,-1.489379 0.442981,-1.655171 0.379547,-0.08336 0.896291,0.09977 0.896291,0.317643 0,0.06845 -0.136102,0.0578 -0.3175,-0.02485 -0.654547,-0.298232 -1.299348,0.391015 -0.959634,1.025779 0.176614,0.330005 0.66107,0.4611 1.011305,0.273659 0.167041,-0.0894 0.265829,-0.09507 0.265829,-0.01527 0,0.170403 -0.427556,0.389937 -0.759423,0.389937 -0.147467,0 -0.408399,-0.140277 -0.579849,-0.311727 z m 2.990272,-0.704273 c 0,-0.592667 0.05292,-1.016 0.127,-1.016 0.06985,0 0.127,0.200025 0.127,0.4445 0,0.442148 0.003,0.4445 0.5715,0.4445 0.568477,0 0.5715,-0.0023 0.5715,-0.4445 0,-0.244475 0.05715,-0.4445 0.127,-0.4445 0.07408,0 0.127001,0.423333 0.127001,1.016 0,0.592668 -0.05292,1.016 -0.127001,1.016 -0.06985,0 -0.127,-0.200025 -0.127,-0.4445 0,-0.442148 -0.003,-0.4445 -0.5715,-0.4445 -0.568476,0 -0.5715,0.0023 -0.5715,0.4445 0,0.244475 -0.05715,0.4445 -0.127,0.4445 -0.07408,0 -0.127,-0.423332 -0.127,-1.016 z m 3.429001,0 v -1.016 h 0.6985 c 0.384175,0 0.6985,0.05715 0.6985,0.127 0,0.06985 -0.257175,0.127 -0.5715,0.127 -0.524933,0 -0.5715,0.02587 -0.5715,0.3175 0,0.28575 0.0508,0.3175 0.508,0.3175 0.2794,0 0.508,0.05715 0.508,0.127 0,0.06985 -0.2286,0.127 -0.508,0.127 -0.4572,0 -0.508,0.03175 -0.508,0.3175 0,0.291631 0.04657,0.3175 0.5715,0.3175 0.314325,0 0.5715,0.05715 0.5715,0.127 0,0.06985 -0.314325,0.127 -0.6985,0.127 h -0.6985 z m 3.048,0 v -1.016 h 0.635 c 0.34925,0 0.635,0.05715 0.635,0.127 0,0.06985 -0.2286,0.127 -0.508,0.127 -0.4572,0 -0.508,0.03175 -0.508,0.3175 0,0.278191 0.05503,0.3175 0.4445,0.3175 0.244475,0 0.4445,0.05715 0.4445,0.127 0,0.06985 -0.200025,0.127 -0.4445,0.127 -0.423333,0 -0.4445,0.02117 -0.4445,0.4445 0,0.244475 -0.05715,0.4445 -0.127,0.4445 -0.07408,0 -0.127,-0.423332 -0.127,-1.016 z m 37.591996,0 v -1.016 h 0.508 c 0.5157,0 1.016,0.330042 1.016,0.670242 0,0.380777 -0.39641,0.726758 -0.8327,0.726758 -0.38178,0 -0.4373,0.04031 -0.4373,0.3175 0,0.174625 -0.0572,0.3175 -0.127,0.3175 -0.0741,0 -0.127,-0.423332 -0.127,-1.016 z m 1.13828,-0.118179 c 0.16659,-0.311277 -0.13084,-0.643821 -0.57585,-0.643821 -0.26782,0 -0.30843,0.05852 -0.30843,0.4445 0,0.40805 0.0309,0.4445 0.37654,0.4445 0.24203,0 0.4234,-0.08758 0.50774,-0.245179 z m 1.90972,0.118179 v -1.016 h 0.43624 c 0.77454,0 1.08776,0.192912 1.08776,0.669957 0,0.232234 -0.07,0.49225 -0.15557,0.577813 -0.12276,0.12276 -0.1209,0.211079 0.009,0.418768 0.25309,0.405255 0.0323,0.474042 -0.25517,0.07948 -0.33936,-0.465869 -0.86806,-0.485065 -0.86806,-0.03152 0,0.174625 -0.0572,0.3175 -0.127,0.3175 -0.0741,0 -0.127,-0.423332 -0.127,-1.016 z m 1.24626,-0.28132 c 0.0322,-0.279639 -0.0217,-0.360251 -0.28546,-0.426447 -0.49224,-0.123544 -0.7068,0.01532 -0.7068,0.457448 0,0.376072 0.0201,0.390988 0.47625,0.353236 0.41183,-0.03408 0.48163,-0.08606 0.51601,-0.384237 z m 2.05574,0.28132 c 0,-0.592667 0.0529,-1.016 0.127,-1.016 0.0741,0 0.127,0.423333 0.127,1.016 0,0.592668 -0.0529,1.016 -0.127,1.016 -0.0741,0 -0.127,-0.423332 -0.127,-1.016 z m 2.10814,0.06376 c -0.20139,-0.527481 -0.32949,-0.995741 -0.28465,-1.040575 0.1221,-0.122108 0.17405,-0.03478 0.50849,0.854849 l 0.30685,0.81624 0.20828,-0.498475 c 0.11455,-0.274162 0.24152,-0.630938 0.28215,-0.792836 0.0748,-0.298197 0.26688,-0.494156 0.37668,-0.384363 0.11168,0.111688 -0.68153,1.933626 -0.85726,1.969061 -0.11246,0.02267 -0.3044,-0.305391 -0.54054,-0.923901 z m 3.14515,-0.02452 c 0.22925,-0.537221 0.485,-0.999497 0.56835,-1.027278 0.16792,-0.05597 1.09654,1.861267 0.96341,1.989037 -0.045,0.04318 -0.16826,-0.05008 -0.27392,-0.207243 -0.26319,-0.391489 -1.16733,-0.41414 -1.26733,-0.03175 -0.0365,0.1397 -0.14313,0.254 -0.23688,0.254 -0.12125,0 -0.0501,-0.281951 0.24637,-0.976766 z m 0.96971,0.165847 c 0,-0.0269 -0.0779,-0.234156 -0.17308,-0.460558 -0.17826,-0.423954 -0.23614,-0.401857 -0.45496,0.173679 -0.1203,0.316428 -0.10587,0.335798 0.25019,0.335798 0.20782,0 0.37785,-0.02201 0.37785,-0.04892 z m 2.54,-0.07808 c 0,-0.8636 -0.009,-0.889 -0.3175,-0.889 -0.17462,0 -0.3175,-0.05715 -0.3175,-0.127 0,-0.07056 0.33868,-0.127 0.762,-0.127 0.73312,0 1.06546,0.193237 0.47625,0.276917 -0.25963,0.03688 -0.28917,0.118917 -0.3233,0.897833 -0.0496,1.132832 -0.27995,1.10671 -0.27995,-0.03175 z m 2.413,-0.127 v -1.016 h 0.6985 c 0.38418,0 0.6985,0.05715 0.6985,0.127 0,0.06985 -0.2286,0.127 -0.508,0.127 -0.4572,0 -0.508,0.03175 -0.508,0.3175 0,0.278191 0.055,0.3175 0.4445,0.3175 0.24448,0 0.4445,0.05715 0.4445,0.127 0,0.06985 -0.20002,0.127 -0.4445,0.127 -0.38947,0 -0.4445,0.03931 -0.4445,0.3175 0,0.291631 0.0466,0.3175 0.5715,0.3175 0.31433,0 0.5715,0.05715 0.5715,0.127 0,0.07056 -0.33867,0.127 -0.762,0.127 h -0.762 z m 5.13773,0.704273 c -0.78706,-0.78706 0.0711,-2.002999 1.12962,-1.600554 0.19356,0.07359 0.31968,0.186005 0.28025,0.249804 -0.042,0.06789 -0.23401,0.05482 -0.46302,-0.03151 -0.3591,-0.135357 -0.4166,-0.118152 -0.69796,0.208821 -0.3739,0.434529 -0.3819,0.594464 -0.0477,0.953221 0.28393,0.304775 0.52116,0.345158 0.88469,0.150605 0.15916,-0.08518 0.26405,-0.0851 0.31679,2.54e-4 0.0868,0.14051 -0.44313,0.381105 -0.83948,0.381105 -0.13832,0 -0.39178,-0.140278 -0.56323,-0.311728 z m 3.16355,-0.665039 c 0.22925,-0.537221 0.48502,-0.999497 0.56835,-1.027278 0.16792,-0.05597 1.09656,1.861267 0.96341,1.989037 -0.045,0.04318 -0.16825,-0.05008 -0.27391,-0.207243 -0.26319,-0.391489 -1.16733,-0.41414 -1.26733,-0.03175 -0.0365,0.1397 -0.14312,0.254 -0.23687,0.254 -0.12126,0 -0.0501,-0.281951 0.24635,-0.976766 z m 0.96973,0.165847 c 0,-0.0269 -0.0779,-0.234156 -0.17308,-0.460558 -0.17827,-0.423954 -0.23614,-0.401857 -0.45496,0.173679 -0.12031,0.316428 -0.10588,0.335798 0.25019,0.335798 0.20781,0 0.37785,-0.02201 0.37785,-0.04892 z m 2.54,-0.07808 c 0,-0.8636 -0.009,-0.889 -0.3175,-0.889 -0.17463,0 -0.3175,-0.05715 -0.3175,-0.127 0,-0.07056 0.33867,-0.127 0.762,-0.127 0.73312,0 1.06545,0.193237 0.47625,0.276917 -0.25964,0.03688 -0.28918,0.118917 -0.32331,0.897833 -0.0496,1.132832 -0.27994,1.10671 -0.27994,-0.03175 z m 2.413,-0.127 v -1.016 h 0.6985 c 0.38417,0 0.6985,0.05715 0.6985,0.127 0,0.06985 -0.2286,0.127 -0.508,0.127 -0.4572,0 -0.508,0.03175 -0.508,0.3175 0,0.278191 0.055,0.3175 0.4445,0.3175 0.24447,0 0.4445,0.05715 0.4445,0.127 0,0.06985 -0.20003,0.127 -0.4445,0.127 -0.38947,0 -0.4445,0.03931 -0.4445,0.3175 0,0.291631 0.0466,0.3175 0.5715,0.3175 0.31432,0 0.5715,0.05715 0.5715,0.127 0,0.07056 -0.33867,0.127 -0.762,0.127 h -0.762 z m 3.048,0 v -1.016 h 0.43623 c 0.97982,0 1.42916,0.479378 1.02603,1.094631 -0.19243,0.293685 -0.19306,0.345741 -0.008,0.628781 0.18061,0.275643 0.18126,0.308588 0.006,0.308588 -0.10789,0 -0.26125,-0.142875 -0.34082,-0.3175 -0.0943,-0.206966 -0.24809,-0.3175 -0.44177,-0.3175 -0.23226,0 -0.29712,0.06931 -0.29712,0.3175 0,0.197557 -0.072,0.3175 -0.1905,0.3175 -0.15345,0 -0.1905,-0.197556 -0.1905,-1.016 z m 1.26527,-0.118179 c 0.1666,-0.311277 -0.13085,-0.643821 -0.57584,-0.643821 -0.26783,0 -0.30843,0.05852 -0.30843,0.4445 0,0.40805 0.0309,0.4445 0.37653,0.4445 0.24203,0 0.4234,-0.08758 0.50774,-0.245179 z m 2.03673,0.118179 c 0,-0.592667 0.0529,-1.016 0.127,-1.016 0.0741,0 0.127,0.423333 0.127,1.016 0,0.592668 -0.0529,1.016 -0.127,1.016 -0.0741,0 -0.127,-0.423332 -0.127,-1.016 z m 2.032,0 c 0,-0.5588 0.0503,-1.016 0.11174,-1.016 0.0615,0 0.3615,0.328613 0.66675,0.73025 l 0.55501,0.73025 0.0381,-0.73025 c 0.0575,-1.102504 0.27942,-0.875563 0.27942,0.28575 0,1.239461 -0.12205,1.283837 -0.8255,0.300137 l -0.508,-0.710385 -0.0381,0.713124 c -0.0582,1.088787 -0.27941,0.848946 -0.27941,-0.302876 z m 3.63663,0.752783 c -0.40714,-0.32025 -0.46881,-1.100496 -0.11238,-1.421704 0.31891,-0.287403 0.85421,-0.391621 1.16292,-0.22641 0.39828,0.213153 0.3202,0.38579 -0.10236,0.226294 -0.83022,-0.313376 -1.44687,0.770255 -0.71224,1.251609 0.44985,0.294752 0.95343,0.149511 0.95343,-0.274986 0,-0.18271 0.0551,-0.288543 0.127,-0.244086 0.0699,0.04317 0.127,0.219407 0.127,0.391639 0,0.219287 -0.0976,0.350273 -0.32577,0.437005 -0.48608,0.184808 -0.74682,0.152293 -1.1176,-0.139361 z m -52.44357,-6.246813 c -0.51376,-0.876675 -1.31298,-1.609817 -2.226915,-2.042823 -0.78301,-0.370971 -0.94442,-0.400516 -2.17915,-0.398873 -1.043258,0.0014 -1.425904,0.0518 -1.758051,0.231614 -0.233503,0.126413 -0.458293,0.196099 -0.499533,0.15486 -0.290337,-0.290337 1.342288,-0.706426 2.760514,-0.703543 1.28209,0.0026 2.560595,0.250997 3.495875,0.679184 l 0.67527,0.309149 0.0914,1.097903 c 0.0503,0.603849 0.0629,1.126508 0.0279,1.161469 -0.035,0.03496 -0.20927,-0.185063 -0.38736,-0.48894 z"
       id="path24" />
  </g>
</svg>
